<?xml version="1.0" encoding="UTF-8"?>
<svg id="Capa_1" xmlns="http://www.w3.org/2000/svg" version="1.1" viewBox="0 0 48 48">
  <!-- Generator: Adobe Illustrator 29.1.0, SVG Export Plug-In . SVG Version: 2.1.0 Build 142)  -->
  <defs>
    <style>
      .st0 {
        fill: #ebc300;
      }
    </style>
  </defs>
  <path id="Discount" class="st0" d="M44.8,24.2c0-.9.3-1.8,1-2.4,2.7-2.5,2.9-6.6.5-9.4-1.3-1.5-3.3-2.3-5.2-2.2-.9,0-1.8-.3-2.4-.9-.6-.6-1-1.5-.9-2.4.2-3.7-2.6-6.8-6.3-7-2,0-3.9.7-5.3,2.2-1.2,1.3-3.2,1.3-4.5,0,0,0,0,0,0,0C19.8,0,16.8-.6,14.2.5c-2.6,1.1-4.2,3.7-4.1,6.5,0,1.7-1.3,3.1-3,3.2,0,0-.2,0-.3,0C3.3,10,.2,12.8,0,16.5c0,2,.7,3.9,2.2,5.2,1.2,1.1,1.3,3,.2,4.3,0,0-.1.2-.2.2-2.7,2.5-2.9,6.6-.5,9.4,1.3,1.5,3.3,2.3,5.2,2.2.9,0,1.8.2,2.4.9.6.6,1,1.5.9,2.4-.2,3.7,2.7,6.8,6.3,6.9,2,0,3.9-.7,5.2-2.1,1.2-1.3,3.1-1.3,4.4-.1,0,0,0,0,.1.1,1.2,1.4,3,2.2,4.9,2.2,3.7,0,6.7-3,6.7-6.7,0,0,0-.2,0-.3-.1-1.7,1.1-3.1,2.8-3.3.2,0,.3,0,.5,0,3.7.2,6.8-2.6,6.9-6.3,0-2-.7-3.9-2.2-5.2-.6-.5-1-1.2-1.1-2h0ZM43.4,29.1c1.2,1.1,1.3,3.1.2,4.3-.6.7-1.5,1-2.4,1-3.7-.2-6.8,2.6-6.9,6.3,0,.2,0,.4,0,.7,0,1.7-1.2,3.1-2.9,3.2-.9,0-1.8-.3-2.4-1-1.3-1.4-3-2.2-4.9-2.2-1.9,0-3.7.8-4.9,2.2-1.1,1.3-3.1,1.4-4.3.2-.7-.6-1.1-1.5-1-2.4.2-3.7-2.6-6.8-6.3-7-.2,0-.4,0-.7,0-1.3,0-2.5-.7-3-1.9-.5-1.2-.2-2.6.8-3.4,2.7-2.5,2.9-6.7.4-9.4-.1-.1-.3-.3-.4-.4-1.3-1.1-1.4-3-.3-4.3.6-.7,1.5-1.1,2.5-1,3.7.2,6.8-2.6,6.9-6.3,0-.2,0-.4,0-.7,0-1.7,1.2-3.1,2.9-3.2.9,0,1.8.3,2.4,1,2.6,2.7,6.9,2.8,9.6.2,0,0,.1-.1.2-.2,1.1-1.3,3.1-1.4,4.3-.2.7.6,1,1.5,1,2.4-.1,1.9.6,3.7,1.9,5,1.3,1.3,3.1,2,5,1.9,1.7,0,3.1,1.2,3.2,2.9,0,.9-.3,1.8-1,2.4-2.7,2.5-2.9,6.6-.5,9.4.2.2.3.3.5.5h0ZM29.7,20.3l-9.8,9.8c-.5.5-1.3.5-1.8,0-.5-.5-.5-1.3,0-1.8,0,0,0,0,0,0l9.8-9.8c.5-.5,1.3-.5,1.9,0,.5.5.6,1.3,0,1.9,0,0,0,0,0,0h0ZM18.2,21.1c-.8-.7-.8-2-.1-2.8.7-.8,2-.8,2.8-.1,0,0,.2.2.3.3.8.7.8,2,.1,2.8-.7.8-2,.8-2.8.1,0,0-.2-.2-.3-.3ZM29.7,27c.8.7.9,2,.2,2.8-.7.8-2,.9-2.8.2-.8-.7-.9-2-.2-2.8.3-.4.8-.7,1.4-.7.5,0,1,.1,1.4.5Z"/>
</svg>