<?xml version="1.0" encoding="UTF-8"?>
<svg id="Capa_1" xmlns="http://www.w3.org/2000/svg" version="1.1" xmlns:xlink="http://www.w3.org/1999/xlink" viewBox="0 0 48 48">
  <!-- Generator: Adobe Illustrator 29.1.0, SVG Export Plug-In . SVG Version: 2.1.0 Build 142)  -->
  <defs>
    <style>
      .st0 {
        fill: none;
      }

      .st1 {
        fill: #004ea8;
      }

      .st2 {
        clip-path: url(#clippath);
      }
    </style>
    <clipPath id="clippath">
      <rect class="st0" x=".1" y=".1" width="47.7" height="47.7"/>
    </clipPath>
  </defs>
  <g class="st2">
    <g id="Loan">
      <path id="Trazado_1001" class="st1" d="M33.4,18.6c0-.7-.5-1.1-1.8-1.3l-1.1-.2c-2.1-.4-3.1-1.4-3.1-2.9,0-.8.3-1.5.9-2.1.5-.6,1.3-.9,2.1-1v-1.6c0-.3.1-.5.3-.7.4-.4,1-.4,1.4,0,0,0,0,0,0,0,.2.2.3.4.3.7v1.6c.6,0,1.2.3,1.7.6.5.4.9.8,1.1,1.4,0,.2,0,.3,0,.5,0,.2,0,.5-.3.6-.2.2-.4.3-.7.2-.2,0-.4,0-.6-.2-.2-.1-.3-.3-.4-.5-.2-.4-.4-.7-.8-.9-.3-.2-.7-.3-1.1-.2-1.1,0-1.8.5-1.8,1.3s.5,1,1.7,1.3l1.1.2c2.2.4,3.1,1.3,3.1,2.9,0,.8-.3,1.7-.9,2.3-.6.6-1.4,1-2.2,1v1.4c0,.3-.1.5-.3.7-.4.4-1,.4-1.4,0,0,0,0,0,0,0-.2-.2-.3-.4-.3-.7v-1.5c-1.2,0-2.3-.8-2.9-1.9,0-.2-.1-.4-.1-.6,0-.3,0-.5.3-.7.2-.2.4-.3.7-.3.2,0,.4,0,.6.2.2.1.3.3.4.5.2.4.5.7.9.9.4.2.8.3,1.2.3,1.2,0,2-.6,2-1.3ZM47.9,34v.8c0,1-.3,2-.9,2.8-.6.8-1.4,1.4-2.3,1.7l-15.1,5.4c-.5.2-1,.3-1.6.3h-.6l-16.6-2.3c-.2.4-.5.7-.8,1-.4.2-.8.4-1.2.4H2.3c-.6,0-1.2-.2-1.6-.7-.4-.4-.7-1-.7-1.6v-15.2c0-.6.2-1.2.7-1.6.4-.4,1-.7,1.6-.7h6.3c.5,0,.9.2,1.3.4.4.3.7.6.8,1.1l8-2.3c-1.2-2.2-1.9-4.7-1.9-7.2,0-5.4,2.9-10.3,7.6-12.9,4.7-2.6,10.4-2.3,14.9.6,6.8,4.5,8.7,13.6,4.2,20.3-1.5,2.3-3.7,4.2-6.3,5.4l5.5-.4c1.3,0,2.6.4,3.6,1.3,1,.9,1.5,2.1,1.6,3.4h0ZM22.2,22.5l2.9-.8c1.6-.4,3.2,0,4.3,1.3,1.1,1.2,1.4,2.9.8,4.5.4,0,.8,0,1.2,0,2.5,0,5-.8,6.9-2.4,5-3.9,5.8-11,2-15.9-1-1.2-2.2-2.3-3.5-3-4.6-2.5-10.2-1.5-13.7,2.4-3.5,3.9-3.9,9.6-1,13.9h0ZM44.5,34c0-.4-.2-.7-.4-1-.3-.3-.7-.4-1-.4l-10.4.7c-.4,0-.9,0-1.3,0l-8.6-1.8c-.4,0-.7-.3-.9-.5-.2-.3-.4-.6-.4-1,0-.4,0-.7.3-1,.2-.3.5-.5.8-.7l4.2-1.5c.2,0,.4-.2.5-.5.2-.4,0-1-.4-1.2-.2-.1-.5-.1-.7,0l-4,1.1h-.2l-9.3,2.7v10.6l15.2,2.1c.2,0,.4,0,.6,0l15.1-5.3c.3,0,.5-.3.7-.5.2-.2.3-.5.3-.8v-1Z"/>
    </g>
  </g>
</svg>