<?xml version="1.0" encoding="UTF-8"?>
<svg id="Capa_1" xmlns="http://www.w3.org/2000/svg" version="1.1" viewBox="0 0 116 70">
  <!-- Generator: Adobe Illustrator 29.1.0, SVG Export Plug-In . SVG Version: 2.1.0 Build 142)  -->
  <defs>
    <style>
      .st0 {
        fill: #9bb4de;
      }

      .st1 {
        fill: #4f66a8;
      }

      .st2 {
        fill: #575756;
      }

      .st3 {
        fill: #6f7cae;
      }

      .st4 {
        fill: #d8e4f1;
      }
    </style>
  </defs>
  <g id="Logo-GrupoFe">
    <path id="Trazado_959" class="st2" d="M80.6,50.4h0c-3-3-7.8-3-10.7,0-3,3-3,7.8,0,10.7,3,3,7.8,3,10.7,0,1.4-1.4,2.2-3.4,2.2-5.4,0-2-.8-4-2.2-5.4ZM75.3,61.1c-1.4,0-2.8-.5-3.8-1.6-1-1-1.6-2.4-1.6-3.8,0-1.4.5-2.8,1.6-3.8,1-1,2.3-1.6,3.8-1.6,1.4,0,2.8.5,3.8,1.6,1,1,1.6,2.3,1.6,3.8,0,2.9-2.4,5.3-5.3,5.3,0,0,0,0,0,0h0Z"/>
    <path id="Trazado_960" class="st2" d="M58.3,48.4c-1.9,0-3.6.8-5,2.1v-1.3c0-.6-.5-1.1-1.1-1.1s-1.1.5-1.1,1.1h0v19.7c0,.6.4,1.1,1,1.1,0,0,0,0,0,0,.6,0,1.1-.4,1.1-1,0,0,0,0,0-.1v-7.5c1.3,1.3,3.1,2,5,2,4-.1,7.2-3.5,7.1-7.5.1-4-3-7.3-7-7.4,0,0-.1,0-.2,0ZM58.3,61.1c-2.9-.1-5.1-2.6-4.9-5.5.1-2.7,2.3-4.8,4.9-4.9,2.8,0,5,2.3,4.9,5.1,0,0,0,0,0,0,0,2.8-2.1,5.1-4.9,5.3h0Z"/>
    <path id="Trazado_961" class="st2" d="M29.2,48.1h-2.3c-1.6,0-3,.9-3.9,2.2v-1.1h0c0-.6-.5-1.1-1.1-1.1-.6,0-1.1.5-1.1,1.1h0v13c0,.6.5,1.1,1.1,1.1.6,0,1.1-.5,1.1-1.1h0v-6.8c0-2.6,2-4.8,4.6-5h0s0,0,.2,0h1.5c.6,0,1.1-.5,1.1-1.1s-.5-1.1-1.1-1.1h0Z"/>
    <path id="Trazado_962" class="st1" d="M116,52.7c0-.3,0-.6-.2-.8-1.2-2.1-3.5-3.3-5.9-3.3-4,0-7.1,3.4-7.1,7.3,0,4,3,7.3,7,7.4,0,0,0,0,0,0,2.3,0,4.5-1.2,5.8-3.1.2-.2.3-.6.2-.9-.2-.5-.7-.9-1.3-.9-.3,0-.6.2-.7.5-.9,1.3-2.4,2.1-4,2.1-1.4,0-2.7-.6-3.6-1.7l9.2-6c.2-.1.4-.4.5-.7ZM105.3,57.5c-.1-.5-.2-1-.2-1.6,0-2.8,2.1-5.1,4.9-5.1,1.3,0,2.5.5,3.3,1.4l-8,5.3Z"/>
    <path id="Trazado_963" class="st2" d="M17.1,53c-.2-.2-.5-.3-.8-.3h-6.5c-.3,0-.6,0-.8.3-.2.2-.3.5-.3.8,0,.3,0,.6.3.8.2.2.5.3.8.3h4.3c.3,0,.6.1.8.3.2.2.3.5.3.8v2.7c0,.2,0,.3-.1.5,0,.1-.2.3-.3.4-.6.5-1.3.8-2,1.1-.9.3-1.9.5-2.8.5-1,0-2.1-.2-3-.6-.9-.4-1.7-1-2.4-1.7-.7-.7-1.2-1.6-1.6-2.5-.4-.9-.6-2-.6-3,0-1.1.2-2.1.6-3.1.4-.9,1-1.8,1.7-2.5.7-.7,1.6-1.3,2.5-1.6,1.9-.8,4-.8,5.9,0,1,.4,1.9,1,2.6,1.7.2.2.5.3.7.3.1,0,.3,0,.4,0,.1,0,.2-.1.3-.2.1,0,.2-.2.2-.3,0-.1,0-.3.1-.4,0-.3-.1-.6-.3-.8-.9-1-2.1-1.7-3.3-2.2-1.2-.5-2.5-.7-3.8-.7-.9,0-1.8.1-2.7.4-.8.2-1.6.6-2.4,1-.7.4-1.4,1-2,1.6-.6.6-1.1,1.3-1.5,2-.4.7-.7,1.5-1,2.4-.2.9-.3,1.7-.3,2.6,0,.9.1,1.8.4,2.6.2.8.6,1.6,1,2.4.4.7.9,1.4,1.5,2,.6.6,1.3,1.1,2,1.6.7.4,1.5.8,2.3,1,.8.2,1.7.4,2.6.4,1.3,0,2.6-.2,3.8-.7,1.3-.5,2.5-1.2,3.4-2.2.1-.1.2-.2.3-.4,0-.2.1-.3.1-.5v-5.8c0-.3,0-.6-.3-.8Z"/>
    <path id="Trazado_964" class="st2" d="M47.7,49.2c0-.6-.5-1.1-1.1-1.1s-1.1.5-1.1,1.1h0v6.7c0,2.8-2.1,5.1-4.9,5.1-2,0-3.7-1.3-4.4-3.1-.3-.6-.4-1.3-.4-2v-6.8c0-.6-.5-1.1-1.1-1.1-.6,0-1.1.5-1.1,1.1v6.8c-.1,3.9,2.9,7.2,6.8,7.3,3.9.1,7.2-2.9,7.3-6.8,0-.2,0-.4,0-.6v-6.7s0,0,0,0Z"/>
    <path id="Trazado_965" class="st1" d="M102.8,42.7h-6.4c-2.3,0-4.1,1.8-4.1,4.1v15.4h0c0,.7.6,1.1,1.2,1.1.6,0,1-.5,1-1.1v-6.9c0-.6.5-1.1,1.1-1.1,0,0,0,0,0,0h3.9c.6,0,1.1-.5,1.1-1.1s-.5-1.1-1.1-1.1h-3.9c-.6,0-1.1-.5-1.1-1.1v-3.9c0-1.2.9-2.1,2.1-2.1h6.2c.6,0,1.1-.5,1.1-1.1h0c0-.6-.5-1.1-1-1.1,0,0,0,0,0,0Z"/>
    <g id="Grupo_678">
      <path id="Trazado_966" class="st4" d="M59.7,28.1c1.5-.6,2.8-1.6,3.7-3,.4-.6.7-1.4.9-2.1.2-.7.2-1.4.2-2.2,0-.7-.3-1.4-.6-2-.1-.3-.3-.6-.5-.9,0-.1-.2-.3-.2-.4,0-.1-.2-.3-.3-.4,0-.2-.2-.3-.3-.4s-.2-.3-.3-.4c-.2-.3-.4-.6-.7-.9-.6-.6-1.1-1.2-1.8-1.8h0c0,0,0-.2,0-.3,0,0,0,0,0,0,1-.2,2-.1,2.9.2.5.2.9.4,1.3.7.2.1.4.3.6.5l.3.3c.1,0,.2.2.3.3.7.8,1.2,1.7,1.5,2.7.2,1,.3,2,.2,3,0,1-.3,2-.7,2.9-.4.9-.9,1.7-1.6,2.4-1.3,1.3-3,2.2-4.9,2.3,0,0-.2,0-.2-.1,0,0,0,0,0,0,0,0,0-.1.1-.1Z"/>
      <path id="Trazado_967" class="st4" d="M56.1,13.5c-1.5.6-2.7,1.7-3.6,3.1-.4.6-.7,1.3-.8,2.1-.2.7-.2,1.4-.1,2.1,0,.7.3,1.4.6,2,0,.2.2.3.2.4,0,.1.2.3.2.4s.2.3.2.4c0,.1.2.3.3.4h0c0,.1,0,.2,0,.2v.2c.1,0,.3.2.3.2l.2.2c.2.3.4.6.7.9.5.6,1.1,1.2,1.7,1.8h0c0,0,0,.2,0,.3,0,0,0,0,0,0-1,.2-2,.1-2.9-.2-.5-.2-.9-.4-1.3-.7-.1,0-.2-.1-.3-.2l-.3-.2-.3-.3h-.1c0-.1-.1-.3-.1-.3-.7-.7-1.2-1.7-1.4-2.7-.2-1-.3-2-.2-3,0-1,.3-1.9.7-2.8.4-.9.9-1.7,1.6-2.4,1.2-1.3,2.9-2.2,4.7-2.4,0,0,.2,0,.2.1,0,0,0,0,0,0,0,0,0,.1-.1.1Z"/>
      <path id="Trazado_968" class="st0" d="M66.1,10c-2.7-1.7-5.8-2.4-9-2-1.5.2-3,.6-4.3,1.3-1.3.7-2.5,1.6-3.5,2.7-1,1.1-1.7,2.3-2.2,3.7-.5,1.3-.9,2.7-1.1,4.1-.2,1.5-.2,2.9,0,4.4.2,1.6.6,3.1,1.2,4.5h0c0,0,0,.2-.1.2,0,0-.1,0-.1,0-1.4-1.1-2.4-2.5-3.1-4.1-.7-1.7-1.1-3.4-1-5.2,0-1.8.5-3.6,1.3-5.2.9-1.6,2-3,3.3-4.2,2.6-2.4,6-3.8,9.5-3.8,1.7,0,3.4.3,5,.8.4.2.8.3,1.2.5.4.2.7.4,1.1.6l1,.7,1,.8c0,0,0,.1,0,.2,0,0,0,0,0,0,0,0-.1,0-.2,0h0Z"/>
      <path id="Trazado_969" class="st0" d="M49.7,31.4l1,.6,1.1.5,1.1.4,1.2.3c1.5.4,3.1.4,4.7.3,1.5-.2,3-.6,4.4-1.4,1.3-.7,2.6-1.6,3.6-2.7,1-1.1,1.8-2.4,2.2-3.8.5-1.4.8-2.8,1-4.2.2-1.5.1-3-.1-4.4-.3-1.6-.7-3.1-1.4-4.6h0c0,0,0-.2,0-.2,0,0,0,0,0,0,0,0,.1,0,.2,0,1.4,1.1,2.5,2.5,3.2,4.1.8,1.7,1.1,3.5,1.1,5.3,0,1.9-.5,3.7-1.3,5.3-.8,1.6-2,3.1-3.3,4.3-1.3,1.2-2.8,2.2-4.5,2.9-1.6.7-3.4,1-5.1,1-1.7,0-3.5-.3-5.1-.9-.4-.2-.8-.3-1.2-.5-.4-.2-.7-.4-1.1-.6l-1.1-.7-1-.8c0,0,0-.2,0-.2,0,0,.2,0,.2,0h0Z"/>
      <path id="Trazado_970" class="st3" d="M72.7,33c.7-.9,1.3-1.9,1.8-3,.5-1,.9-2.1,1.3-3.2.6-2.2.8-4.5.6-6.8-.4-4.5-2.4-8.7-5.7-11.9-1.6-1.5-3.5-2.7-5.6-3.5-2-.8-4.2-1.3-6.3-1.5-2.2-.2-4.4,0-6.6.4-2.2.5-4.4,1.4-6.4,2.5,0,0-.2,0-.2,0,0,0,0-.1,0-.2,1.6-1.9,3.6-3.4,5.9-4.4C53.9.5,56.4,0,59,0c1.3,0,2.6.2,3.8.5.6.2,1.2.3,1.8.6.6.2,1.2.5,1.8.7,2.3,1.1,4.3,2.7,6.1,4.5,1.7,1.8,3.1,4,4.1,6.3.9,2.3,1.4,4.8,1.4,7.3,0,4.9-1.8,9.7-5.1,13.3,0,0-.2,0-.2,0,0,0,0-.2,0-.2Z"/>
      <path id="Trazado_971" class="st3" d="M43.3,8.6c-.7.9-1.3,1.9-1.8,3-3.7,7.3-2.1,16.2,3.8,21.9,1.6,1.5,3.5,2.7,5.6,3.5,2,.8,4.2,1.3,6.3,1.5,2.2.2,4.4,0,6.6-.4,2.2-.5,4.4-1.4,6.4-2.5,0,0,.2,0,.2,0,0,0,0,.1,0,.2-1.6,1.9-3.6,3.4-5.9,4.4-2.3,1-4.9,1.5-7.4,1.5-1.3,0-2.6-.2-3.8-.5-.6-.2-1.2-.3-1.8-.6-.6-.2-1.2-.5-1.8-.7-2.3-1.1-4.3-2.7-6.1-4.5-3.5-3.7-5.5-8.5-5.5-13.6,0-4.9,1.8-9.7,5.1-13.3,0,0,.2,0,.2,0,0,.1,0,.2,0,.3Z"/>
    </g>
  </g>
</svg>