<?xml version="1.0" encoding="UTF-8"?>
<svg id="Capa_1" xmlns="http://www.w3.org/2000/svg" version="1.1" viewBox="0 0 48 48">
  <!-- Generator: Adobe Illustrator 29.1.0, SVG Export Plug-In . SVG Version: 2.1.0 Build 142)  -->
  <defs>
    <style>
      .st0 {
        fill: #007a33;
      }
    </style>
  </defs>
  <path id="church_24dp_E8EAED_FILL0_wght400_GRAD0_opsz24" class="st0" d="M0,48v-18.3l9.6-4.1v-7.4l12-5.7v-3.4h-4.8v-4.6h4.8V0h4.8v4.6h4.8v4.6h-4.8v3.4l12,5.7v7.4l9.6,4.1v18.3h-21.6v-9.1c0-.6-.2-1.2-.7-1.6-.5-.4-1.1-.7-1.7-.7-.6,0-1.3.2-1.7.7-.5.4-.7,1-.7,1.6v9.1H0ZM4.8,43.4h12v-4.7c0-1.9.7-3.6,2.1-4.9,1.3-1.3,3.2-2.1,5.1-2,1.9,0,3.8.7,5.1,2,1.4,1.3,2.1,3.1,2.1,4.9v4.7h12v-11l-9.6-4.1v-7.7l-9.6-4.7-9.6,4.7v7.7l-9.6,4.1v11ZM24,28.6c1,0,1.9-.3,2.6-1,.7-.6,1.1-1.5,1.1-2.4,0-.9-.4-1.8-1.1-2.4-.7-.7-1.6-1-2.6-1-1,0-1.9.3-2.6,1-.7.6-1.1,1.5-1.1,2.4,0,.9.4,1.8,1.1,2.4.7.7,1.6,1,2.6,1Z"/>
</svg>