<?xml version="1.0" encoding="UTF-8"?>
<svg id="Capa_1" xmlns="http://www.w3.org/2000/svg" version="1.1" viewBox="0 0 16 16">
  <!-- Generator: Adobe Illustrator 29.1.0, SVG Export Plug-In . SVG Version: 2.1.0 Build 142)  -->
  <defs>
    <style>
      .st0 {
        fill: #004ea8;
      }
    </style>
  </defs>
  <path id="check_circle_24dp_E8EAED_FILL0_wght400_GRAD0_opsz24" class="st0" d="M6.9,11.7l5.6-5.6-1.1-1.1-4.5,4.5-2.3-2.3-1.1,1.1,3.4,3.4ZM8,16c-1.1,0-2.1-.2-3.1-.6-.9-.4-1.8-1-2.5-1.7-.7-.7-1.3-1.6-1.7-2.5C.2,10.1,0,9.1,0,8c0-1.1.2-2.1.6-3.1.4-.9,1-1.8,1.7-2.5.7-.7,1.6-1.3,2.5-1.7C5.9.2,6.9,0,8,0c1.1,0,2.1.2,3.1.6.9.4,1.8,1,2.5,1.7.7.7,1.3,1.6,1.7,2.5.4,1,.6,2,.6,3.1,0,1.1-.2,2.1-.6,3.1-.4.9-1,1.8-1.7,2.5-.7.7-1.6,1.3-2.5,1.7-1,.4-2,.6-3.1.6ZM8,14.4c1.7,0,3.3-.6,4.5-1.9,1.2-1.2,1.9-2.8,1.9-4.5,0-1.7-.6-3.3-1.9-4.5-1.2-1.2-2.8-1.9-4.5-1.9-1.7,0-3.3.6-4.5,1.9-1.2,1.2-1.9,2.8-1.9,4.5,0,1.7.6,3.3,1.9,4.5,1.2,1.2,2.8,1.9,4.5,1.9Z"/>
</svg>