<?xml version="1.0" encoding="UTF-8"?>
<svg id="Capa_1" xmlns="http://www.w3.org/2000/svg" version="1.1" viewBox="0 0 115 42">
  <!-- Generator: Adobe Illustrator 29.1.0, SVG Export Plug-In . SVG Version: 2.1.0 Build 142)  -->
  <defs>
    <style>
      .st0 {
        fill: #ff2317;
      }

      .st1 {
        fill: #272b27;
      }

      .st2 {
        fill: #0a4ea4;
      }

      .st3 {
        fill: #d03500;
      }

      .st4 {
        fill: #36783b;
      }

      .st5 {
        fill: #f4cf00;
      }
    </style>
  </defs>
  <path id="Trazado_985" class="st1" d="M93.4,23.9h0c-.3,1.3-.9,3.2-2.1,3.8,0,0,0,0-.1,0-.3.2-.7.2-1.1.2,0,0-.1,0-.2,0-.6-.2-.8-1.1-.9-1.7-.1-1.1,0-2.2.2-3.3.3-1.2.9-3.1,2.1-3.8,0,0,0,0,.1,0,.3-.2.7-.2,1-.1.7.1,1,1,1.1,1.6.2,1.2.2,2.3-.2,3.5M94.4,18c-.3-.3-.7-.5-1.1-.6-.7-.2-1.3,0-2,.2,0,0,0,0-.1,0-1.6,1-2.8,2.6-3.4,4.5-.3,1-.5,2-.6,3v.7c0,1.5.8,2.8,2.1,3.4.6.2,1.4.1,1.9-.2,0,0,0,0,.1,0,1.6-1,2.8-2.6,3.4-4.5.6-1.8,1.2-5-.5-6.5M107.5,17.4h-2.1c.2-1.3.3-2.6.5-3.9,0-.5.4-.7.9-.8.4,0,.8,0,1.2.1h.3c0,0,0-1.6,0-1.6h-.2c-1.6-.2-3,.7-3.6,2.1-.5,1.1-.8,2.2-.8,3.4,0,.5-.4,1-1,1,0,0-.1,0-.2,0h-.3s0,.7,0,.7h1.2c-.2,2.2-.5,4.5-.7,6.7-.2,1.4-.3,2.7-.5,4.1-.1.9-.2,1.7-.4,2.6-.3,1.2-.9,2.3-1.9,3h-.1v.9h.3c1-.1,1.9-.6,2.4-1.4.7-1,1.1-2.1,1.2-3.3.5-4.2,1-8.4,1.5-12.6h2.3v-1.1ZM84.6,24.5c-.4,1-1.1,1.9-1.8,2.6-.8.7-1.5,1.1-2,.8-1-.5-.9-2.9.2-5.2.4-1,1-1.9,1.8-2.7.8-.8,1.5-1.1,2-.8,1,.5.9,2.8-.2,5.3M84.7,24.4c0,0,0-.1,0-.2v.2M85.7,17.7c-1-.5-2.1.2-2.9.8-.1,0-.2.2-.3.3-.7.7-1.3,1.5-1.8,2.4.1-1.1.2-2.2.4-3.2s-.3-.5-.7-.3c-.7.3-1.4.5-2.1.6h-.2v.9h.3c.3-.1.6-.2.9-.2-.3,2.7-.6,5.4-.9,8.1-.2,1.8-.4,3.6-.6,5.4-.1,1-.2,2-.4,3v.4s.3,0,.3,0c.3,0,.7-.1,1-.2h.2s0-.2,0-.2c.2-1.6.5-3.2.8-4.7,0-.4.1-.9.2-1.3,1,.4,2.2.1,3-.6h0c1.2-1,2.2-2.3,2.9-3.7.7-1.4,1.1-2.9,1.2-4.5,0-1-.2-2.3-1.2-2.8M112.3,20.9c-.4.8-1.1,1.5-1.9,2.1h0c-.6.5-1.3.8-2.1,1.1.2-3,1-3.8,1.3-4.1.2-.3.5-.6.8-.8h0c.4-.3,1-.4,1.5-.3.6.5.8,1.3.4,2M113.3,17.7c-.1,0-.2-.2-.4-.2-.9-.3-1.8-.2-2.6.3,0,0-.2.1-.2.2-1.4,1-2.4,2.5-3,4.1-.4,1.1-.7,2.2-.7,3.4v.3c0,.2,0,.4,0,.6,0,1.1.6,2.2,1.5,2.8.1,0,.3.1.4.2.7.2,1.4.1,2-.2h0c1.2-.7,2.2-1.6,3-2.7l.2-.2h-.2c-.1-.2-.2-.3-.4-.4h-.2c0-.1-.1,0-.1,0-.6.7-1.4,1.4-2.2,1.9,0,0-.1,0-.2,0h0c-1.1.5-1.5-.2-1.7-1.2,0-.5-.1-1.1,0-1.6.7-.2,1.4-.5,2-.8h0c1.5-.7,2.7-2,3.4-3.5.1-.4.2-.8.2-1.2h0c0-.7-.2-1.3-.7-1.7M109.6,19.9s0,0,0,0c0,0,0,0,0,0M109.5,20s0,0,0,0c0,0,0,0,0,0M77.8,27.1c.1-.1.3-.3.2-.5-.2-.2-.5,0-.6,0-.3.2-.6.4-.9.6-.2.1-1.2.8-1.4.6-.1-.1,0-.7,0-.8,0-.6.2-1.2.3-1.8,0-.3,0-.7,0-1,0-.3.1-.6.2-.9.2-1.1.3-2.2.5-3.2.1-.7.2-2.1-.6-2.5-.5-.3-1.1,0-1.5.4-.8.8-1.5,1.6-2.1,2.6-.2.3-.3.6-.4.8-.2.4-.4.9-.6,1.3-.2.3-.3.7-.5,1,0-.7.1-1.3.2-2,0-.9.2-1.8.2-2.8,0-.5-.1-1-.5-1.3-.8-.5-2.1.4-2.7,1-.6.7-1.2,1.5-1.6,2.4-.4.7-.7,1.4-1,2.1,0-.8.2-1.5.2-2.3,0-.7.2-1.3.2-2,0-.3,0-.7.1-1,.1-.6-.1-.6-.6-.3-.7.3-1.4.6-2.2.7h-.2v.8h.3c.3,0,.5-.1.8-.2-.4,3.3-.7,6.6-1.1,9.9v.3s.3,0,.3,0c.3,0,.7,0,1,0h.2s0-.2,0-.2c.3-.9.6-1.7.8-2.6.3-.9.7-1.8,1-2.8.2-.4.3-.8.6-1.1.5-1,1.2-1.9,1.9-2.7,0,0,.4-.4.5-.5.2.2,0,1.2,0,1.4,0,.4,0,.7-.1,1.1,0,.1,0,.4,0,.5,0,.4,0,.7-.1,1.1,0,.8-.2,1.5-.3,2.3-.1,1.1-.3,2.3-.4,3.4v.3s.3,0,.3,0c.4,0,.8,0,1.2-.2h.1s0-.1,0-.1c.2-.4.3-.9.4-1.4.1-.5.3-1,.5-1.4.2-.4.3-.7.5-1.1.1-.2.2-.4.3-.7.2-.4.4-.9.6-1.3.5-1,1.1-1.9,1.7-2.9,0-.1.6-.9.9-.9,0,.2.1.5.1.8-.3,2.3-.7,4.6-1,6.9-.3,2.1.6,2.7,2.4,1.7.5-.3.9-.6,1.4-1,.2-.1.3-.3.5-.4.1,0,.2-.2.3-.3M58.7,20.3c-.7,1.9-1.5,3.8-2.5,5.6h0c-.3.6-.8,1.2-1.3,1.7-1.3.8-1.6-.4-1.3-2.9.2-2,1.1-3.8,2.5-5.2,0,0,0,0,.1,0,.8-.3,1.7-.4,2.6-.3,0,0,.3,0,0,1.2M58.7,20.3s0,0,0-.1c0,0,0,0,0,.1M60.7,27.3h-.2c0-.1-.2,0-.2,0-.1.1-.6.6-.8.5-.2,0-.2-.9-.1-1,0-1.4.3-2.7.4-4.1.2-1.7.4-3.3.6-5,0-.7-.9,0-1.2.2,0,0,0,0,0,0-.8-.3-1.8-.3-2.6,0-.2,0-.3.2-.5.3,0,0-.1,0-.2.1-2.3,1.4-3.4,3.8-3.9,6.3-.3,1.1-.3,2.4,0,3.5.2.7.8,1.2,1.5,1.3.6,0,1.3-.1,1.7-.6.3-.3.6-.6.8-.9,0,0,0-.1.1-.2.6-.9,1.2-1.9,1.7-2.9,0,.7-.1,1.5-.1,1.8,0,.4,0,.9,0,1.3,0,.5.2,1,.6,1.3.4.2.9.2,1.2,0,.6-.3,1.1-.8,1.4-1.4h0c0-.1,0-.2,0-.2,0-.1-.2-.3-.3-.3M50.9,26.4v-.4s-.4.2-.4.2c-1.6,1.1-3.6,1.5-5.5,1.2-2.4-.5-4.3-2.1-5.2-4.4-1.3-3-1.1-6.2,1.4-8.5,1-.9,2.1-1.4,3.4-1.7,1.1-.2,2.3,0,3.3.5,1,.6,1.7,1.7,1.9,2.9h0s0,0,0,0c.1.3.4.2.6.1h.2v-3.8h-.1c-1.4-.9-3-1.3-4.6-1.3-5,0-9,4-9,9,0,5,4,9,9,9,1.8-.2,3.5-.7,5-1.6h.2c0,0,0-.3,0-.3,0-.4,0-.7,0-1.1"/>
  <g>
    <path id="Trazado_972" class="st4" d="M14,40.5c1.2-.7,2.4-1.5,3.6-2.4,1.6-1.3,2.8-2.9,3.7-4.7.4-1.1,1-2.1,1.8-3,.4-.5,1.1-1.5,1.3-1.9.9-1,2-2.6,2.7-3,.9-.5,1.8-.8,2.8-1-.1,2.2-.6,4.3-1.5,6.3-1.1,2.4-2.6,4.5-4.3,6.4-1.6,1.8-3.7,3-6.1,3.3-1,.4-4,.1-4-.2h0"/>
    <path id="Trazado_973" class="st4" d="M30,23c-.9-.7-2-1.2-3.2-1.4-1.5-.2-3.1.4-4,1.6-.8.6-3.1,2.7-4,3.6-.5,2.9-.2,3.9-.2,6.7s2.5-.5,3.1-.6c.7-.7,1.6-2.5,2.3-3.6.8-.9,2-2.4,3-3.6l3-1.2v-1.6Z"/>
    <path id="Trazado_974" class="st5" d="M17.4.9c.5,0,1.1.1,1.6.3.5.1.8.5,1,.9v.2c.8,1.3-.1,5.3-.1,6.1s-.4,4.9-.6,5.6c-.3,1.2-.5,2.4-.5,3.6,0,.6,0,4.1-.2,7.4-.1,3.3,0,8.2,0,8.5,0,0-.9.1-1.2.1s-1.2-.1-2-1.6c-.8-1.4-1.5-2.9-2-4.4-.1-1,0-2.5,0-3.9,0-3.8.5-11.3.5-11.5s0-1.1-.1-2.1c0-.8.2-1.7.1-2.4-.2-1.7-1-3.7-1-4s-.9-2.5,1.1-2.4c1.1-.3,2.3-.4,3.4-.3h0"/>
    <path id="Trazado_975" class="st2" d="M12.4,1.7c-1.8.2-7.2,4.9-7.1,6.3,0,.4.7,1.6.7,2.2.3.2.3,2.2.7,2.1l1.7-1.4h1.6c1.3-.2,2.5-.4,3.7-.8v-1.5c.1-.6,0-1.2,0-1.8,0-.9-.9-2.3-.9-3.2s0-1.9-.4-2h0"/>
    <path id="Trazado_976" class="st3" d="M20.1,2.2c-.4,0-.2,5.5-.2,6.4-.2.5-.3,3.5-.3,3.5,0,0,2.6-.1,2.7-.1l3.3-.8c.8,0,1.6-.1,2.4-.2,0-1.2-1.3-3.7-2.8-5.2-1.8-2.1-4.6-3.9-5.1-3.6h0"/>
    <path id="Trazado_977" class="st5" d="M18.7,16.6c0,.1,3.3-.4,3.5-.4,1.4,0,2.6.1,3.8.2,1.3.3,2.5.6,3.7,1,0-1-1.1-6.5-1.9-6.5-1.8,0-3.6.3-5.4.7l-3.1.4c0,.3-.8,4.2-.8,4.5h0"/>
    <path id="Trazado_978" class="st2" d="M18.8,16.6l-.2,10.1v1.1h0c.1-.6.4-1.1.7-1.5,1-.8,1.9-1.6,2.8-2.5,1.3-1.3,2.1-2.3,4.7-2.3s2.3,1,3,1.3c.6,0,.3-4.9,0-5.4-1.8-.7-3.7-1.1-5.6-1.2-1.8-.1-3.6,0-5.4.4h0"/>
    <path id="Trazado_979" class="st4" d="M21.8,32.7c-1.4.5-2.9.8-4.3.9-1.1,0-2.1-1.4-2.3-2.2-.5-1.3-1.1-2.6-1.7-3.9-.9-.2-3.5,1.2-4.3,1.9-2.1,1.4-4.7,3.2-4.5,3.5,0,0,2.7,4.9,5.5,6.2.9.4,2.5,1.6,4,1.5,1.9-.9,3.6-2.1,5.1-3.5,1-1.3,1.9-2.8,2.7-4.3"/>
    <path id="Trazado_980" class="st4" d="M4.4,32.8c1.2-.8,4.6-3.3,5.2-3.8-1-1-1.6-2.3-1.7-3.7-.2-.9-.5-1.7-.8-2.5,0-.2-.7.2-.9.2-.3,0-1.1-.3-1.4-.3-1-.2-2-.5-2.9-.9-.2-.1,0,.9,0,1.7s.5,3.4.5,3.7,2,5.6,2,5.6h0"/>
    <path id="Trazado_981" class="st3" d="M7.1,22.9c-.2.7-4.5-.7-5.3-1.1l-.2-1.7c.2-1.2.4-2.4.4-3.6.2-1.8.7-3.5,1.3-5.1.3-.5,1.6-3.3,1.9-3.3,1.1.2.7,2.7,1.2,3.6.6,1.5.8,3.1.6,4.8-.3,1.7-.7,2.9-.3,4.4.2.7.4,1.4.4,2.1h0"/>
    <path id="Trazado_982" class="st2" d="M9.5,15.7s-2.2-1.1-2.3-.4c-.7,2.4-.7,4.9,0,7.3,1,3.2.8,3.8,1.2,4.5.3.6.8,2.2,1.1,2,1.3-.5,2.7-1,4-1.6-.1-1.6.2-6.9.2-7.5,0-1.5.5-2.9.2-3.2-.6-.2-1.2-.3-1.8-.3-.8-.2-1.6-.5-2.4-.8"/>
    <path id="Trazado_983" class="st5" d="M13.7,10.1c.3.4.4,1,.3,1.5,0,.7-.3,2.2-.3,3.2v1.9c-.8,0-1.6-.1-2.3-.3-1.1-.3-3.2-1.1-3.3-1.1s-1.2,0-1.2-.5-.5-1.7-.4-2.4c0-.3.6-1.5,1.6-1.5.8,0,1.6,0,2.3-.1.6,0,3.2-.6,3.2-.6"/>
    <path id="Trazado_984" class="st0" d="M15.6,12.7s.2-.5.6-.5.5.2.7.7c.3.6.6,1.4.7,2.1,0,.5-.2,1-.3,1.4,0,.4-.3.7-.6.9-.3,0-.5-.1-.6-.4-.3-.4-.5-.9-.7-1.3-.2-.5-.2-1.1,0-1.6,0-.3.4-1.2.4-1.2"/>
    <path id="Trazado_986" class="st1" d="M15.4,13.9c.2-.3.3-.6.3-1,0,0,.2-.6.4-.6,0,0,0,0,.1,0h0c.2.2.4.4.5.6.3.6.5,1.3.6,2,0,.5-.1.9-.3,1.3,0,.3-.2.6-.5.8-.1,0-.2,0-.3,0-.1,0-.2-.2-.3-.3-.3-.5-.6-1.1-.8-1.7,0-.4,0-.8.1-1.1M15.9,17.1c0,.2.2.3.4.4.1,0,.2,0,.3,0,.3,0,.6-.4.7-1,.2-.4.3-.9.4-1.3,0-.9-.3-1.8-.8-2.6-.1-.3-.4-.6-.7-.7,0,0-.1,0-.2,0-.4,0-.6.7-.6.7,0,.4-.2.8-.4,1.2-.6,1,0,2.2.8,3.3M7.5,6.7s0,0,0,0c0,0,0,0,0,0M7.4,6.7s0,0,0,.1c0,0,0,0,0-.1M23.5,3.2s0,0,0,0c0,0,0,0,0,0M23.5,3.2s0,0,0,0c0,0,0,0,0,0M28.8,21.3c-.7,0-1.2-.4-1.9-.4s-1,.2-1.6.2c-.4,0-.7,0-1,0-.3,0-.5.2-.7.3h0c-1.1,1.2-1.8,2.5-3.3,2.5-.1,0-.2,0-.3-.2h0c0,0,0-.1-.1-.2v-5.8c.1,0,.1,0,.1,0h0c1.1-.6,2.4-.9,3.6-1,.2,0,.5,0,.7,0h0c1.8,0,3,.1,4.4,1.2.8.6.7,1.5.7,2.4s-.3.9-.6.9M24.2,35.1c-.3.3-.5.6-.8.8-1.1,1.1-2.3,2.1-3.6,3h0c-.2.2-.5.3-.8.4-.2,0-.3.1-.5.2-.2,0-.5.1-.7,0-.2,0,.2-.2.7-.6.2-.1.3-.3.5-.4.2-.2.5-.5.8-.7h0c1-1.1,1.8-2.3,2.2-3.7.4-1.1.8-2.2,1.4-3.2.2-.5.5-.9.8-1.3,2.4-3.7,4.9-3.7,4.9-3.5-.2,2.8-2.4,6.3-4.9,9.1M16.5,38.1s0,0,0,0c0,0,0,0,0,0M12.6,39c-1-.1-1.9-.5-2.7-1.1-.9-.6-1.6-1.4-2.3-2.2h0c-.3-.4-.5-.7-.7-1-.4-.5-.7-1.1-1-1.6,0,0,.4-.3,1-.8.2-.2.4-.3.7-.5h0c.7-.5,1.5-1.1,2.3-1.7,0,0,0,0,0,0,2.3-1.6,3.8-.9,4.7,2.3.2.9,1,1.6,1.9,1.8.7.1,1.4.2,2.1,0,.2,0,.4,0,.5,0,.3,0,.6-.1.8-.2h0c.2,0,.4-.1.5-.2,0,0,0,0-.5.7h0c-.2.3-.4.6-.8,1-.1.2-.3.3-.4.5h-.1c-.6.9-1.3,1.5-2.1,2-1.1.8-2.5,1.1-3.9.9M4.4,30.2h0s0,0,0,0c0-.1,0-.2,0-.2h0c0-.1-.2-.7-.4-1.2-.2-.6-.7-1.5-.8-2-.3-1.1-.4-2.2-.5-3.3,0-.8.4-.4.9,0,.2.2.5.3.8.4h0c.2,0,.3,0,.5,0,.4,0,.7.3,1.3,0,.5-.3.5.2.5.4s.2.5.3,1c0,.8.2,1.6.4,2.3,0,0,0,0,0,0,0,0,0,0,0,.1.4.7,0,1,0,1.1,0,0,0,0,0,0h0c-.2.3-.4.6-.7.8-.3.2-.6.5-1,.8-1,.8-1.3,0-1.4-.4M2.4,20.1c.2-1.2.3-2.4.3-3.6,0-.9.6-4.1,1.2-4.7.2-.2.3-.5.4-.8h0c.2-.4.3-.6.6-.5.4.2.4.5.2,1-.2.7,0,1.4.6,1.9.4.2,1,1.9.3,3.8-.5,1.3-.5,2.7-.2,4,.1.3.2.6.2.9-.2.4-.9,0-1.7-.4h0c-.4-.2-.7-.4-1.1-.4-1,0-.8-.9-.8-1M6.8,8.1c.2-.5.4-1,.7-1.4,0,0,0,0,0-.1h0c.2-.6.6-1.1,1-1.4.4-.2.7-.5,1-.7,0,0,.2-.2.3-.3.4-.6,1.1-.9,1.8-1,.5,0,.4.7.5,1.2.4.7.6,1.5.7,2.2,0,.5,0,.9-.2,1.4v1.2c-.9,0-1.8.2-2.6.6h-1.6l-.7.4c0,0-.2,0-.3,0h0c-.2,0-.4-.1-.5-.3,0-.3,0-.6-.2-.9,0-.1,0-.3,0-.5,0-.2,0-.3,0-.5M12.6,20.6c.4.7,0,2.9.2,4.5s-.3,1.5-1.6,2.1c-.7.4-1.1.3-1.4,0-.2-.3-.5-.6-.7-.9-.7-1-.3-1.1-1.4-4.5,0-.2-.1-.4-.2-.6,0,0,0,0,0-.1-.4-1.1-.4-2.3,0-3.4,0,0,0,0,0,0,.2-.4.4-.7.5-1,.2-.6,1.2-.3,1.8-.1.3.1.5.2.5.2,0,0,1.1.5,1.5.7.5.2.5,0,.9.3.3.2,0,.6,0,1.1,0,.5-.1,1.1-.1,1.6M13,11.7c-.1.8-.1,1.4-.2,2.5-.1.9-.1,1.9-1.6,1.3-.5-.2-1-.4-1.4-.5-.7-.3-1.3-.4-1.3-.4,0,0-.8,0-.9-.6,0-.1,0-.2,0-.2,0,0,0,0,0,0,0-.2,0-.5,0-.8h0c0,0,0-.1,0-.2,0-.4,0-.7.9-.7.5,0,1,0,1.4,0,.2,0,.5,0,.7,0,.6-.1,1.1-.2,1.1-.2,0,0,1.5-.6,1.4.1M13.1,11.4s0,0,0,0M14.7,2.3c.8,0,1.4,0,1.8,0,.4,0,.6,0,.6,0,.5,0,1,0,1.5.2.2,0,.4.2.5.3.2.2.3.6.2.9-.1,1.5-.1,3.1,0,4.6,0,.5,0,1.7-.2,2.9,0,.8-.2,1.6-.4,2.4,0,0,0,.2-.1.2-.4,1.2-.6,2.4-.5,3.7,0,1.4-.6,14-.6,14,0,0-.1,2.4-1.1.9-.2-.3-.3-.6-.4-.9-1.3-3-2.2-4-2.1-7.9.2-3.9.4-10.6.7-11.1.3-1.7.3-3.4,0-5-.3-2-.8-3.4-.8-3.8,0-.5-.6-1.3.9-1.3M19.8,28.4h0c.2-.5.6-1,1-1.7.7-1.1,1.6-2.2,2.6-3,.2-.2.5-.4.8-.5,1.5-1,3.4-.7,4.5.6-1.8.9-3.3,2.2-4.5,3.8-.3.4-.5.8-.6,1.3,0,.2-.1.3-.2.5-.8,1.4-2.1,2.5-3.6,3h0c-.3.1-.5.1-.5,0,0-2.2-.3-2.4.5-4-.7,1.4-.1.2,0,0M20,15.1c0-.6.3-.9.3-1.5s0-.8.4-.8h2.1c.2,0,.4,0,.6-.1.3,0,.5-.1.8-.2,1-.2,2.1-.3,3.1-.3.7,0,.8.7,1.1,1.3.3.7.4,1.5.4,2.2v.9c-.9-.2-1.8-.4-2.8-.5-.7-.1-1.3-.2-1.8-.3-.3,0-.5,0-.8-.1-.4,0-.7,0-1.1,0-.8,0-1.7-.2-2.2.4-.3-.2-.1-.5-.1-.8M20.3,9.8c0-.4,0-.8.2-1.1v-3.5c.1-.4-.3-.9-.1-1,.5-.2,1.8.5,3.1,1.5.3.2.5.4.8.7,1.2,1.2,2.3,2.6,2.4,3.8,0,.2-1.1.2-1.1.2l-1.3.3-.8.2-1.3.3s-1.7.2-1.9,0c-.3-.3,0-1.2,0-1.2M24.2,3.9c-.3-.2-.5-.5-.8-.7-1.1-.9-2.3-1.6-3.6-2.1h0c-.3-.1-.5-.2-.8-.3-.2,0-.3,0-.5-.1-.7-.2-1.4-.3-2.1-.3-.2,0-.4,0-.5,0-2.2,0-4.3.6-6.1,1.8-.8.5-1.6,1.1-2.3,1.8h0c-.2.3-.5.5-.7.8-.9,1-1.7,2-2.4,3.2h0C2.1,11.9.9,16.4,1,21c0,4.6,1.1,9.1,3.4,13.2h0c.7,1.2,1.5,2.3,2.4,3.2.2.3.5.5.7.7h0c.7.7,1.5,1.3,2.3,1.8,1.8,1.2,3.9,1.8,6.1,1.8.2,0,.4,0,.5,0,.7,0,1.4-.1,2.1-.3.2,0,.3,0,.5-.2.3,0,.5-.2.8-.3h0c1.3-.5,2.5-1.2,3.6-2.1.3-.2.5-.4.8-.7,4-3.7,6.6-10.1,6.6-17.2s-2.6-13.4-6.6-17.1M7.3,6.9s0,0,0,0"/>
  </g>
</svg>